<mxfile host="app.diagrams.net" modified="2022-03-09T07:14:16.762Z" agent="5.0 (Windows)" etag="DPfnV2OFpV7WFxUrLRSQ" version="17.0.0" type="github">
  <diagram id="VX1TB494LpYBK79ufDEt" name="Page-1">
    <mxGraphModel dx="564" dy="633" grid="1" gridSize="10" guides="1" tooltips="1" connect="1" arrows="1" fold="1" page="1" pageScale="1" pageWidth="850" pageHeight="1100" math="0" shadow="0">
      <root>
        <mxCell id="0" />
        <mxCell id="1" parent="0" />
        <mxCell id="M0doM4tokOYMtvtwn-fC-1" value="Get Used By" style="edgeStyle=orthogonalEdgeStyle;rounded=0;orthogonalLoop=1;jettySize=auto;html=1;exitX=1;exitY=0.5;exitDx=0;exitDy=0;entryX=0;entryY=0.5;entryDx=0;entryDy=0;fontSize=16;strokeWidth=3;" edge="1" parent="1" source="M0doM4tokOYMtvtwn-fC-2" target="M0doM4tokOYMtvtwn-fC-3">
          <mxGeometry relative="1" as="geometry" />
        </mxCell>
        <mxCell id="M0doM4tokOYMtvtwn-fC-2" value="&lt;font style=&quot;font-size: 24px&quot;&gt;Inventory&lt;/font&gt;" style="rounded=1;whiteSpace=wrap;html=1;strokeWidth=3;" vertex="1" parent="1">
          <mxGeometry x="30" y="90" width="190" height="90" as="geometry" />
        </mxCell>
        <mxCell id="M0doM4tokOYMtvtwn-fC-3" value="&lt;font style=&quot;font-size: 24px&quot;&gt;Character&lt;/font&gt;" style="rounded=1;whiteSpace=wrap;html=1;strokeWidth=3;" vertex="1" parent="1">
          <mxGeometry x="360" y="90" width="190" height="90" as="geometry" />
        </mxCell>
      </root>
    </mxGraphModel>
  </diagram>
</mxfile>
